<svg aria-hidden="true" style="position: absolute; width: 0; height: 0; overflow: hidden;" version="1.1" xmlns="http://www.w3.org/2000/svg" xmlns:xlink="http://www.w3.org/1999/xlink">
<defs>
<symbol id="icon-chevron-down" viewBox="0 0 20 20">
<path d="M4.516 7.548c0.436-0.446 1.043-0.481 1.576 0l3.908 3.747 3.908-3.747c0.533-0.481 1.141-0.446 1.574 0 0.436 0.445 0.408 1.197 0 1.615-0.406 0.418-4.695 4.502-4.695 4.502-0.217 0.223-0.502 0.335-0.787 0.335s-0.57-0.112-0.789-0.335c0 0-4.287-4.084-4.695-4.502s-0.436-1.17 0-1.615z"></path>
</symbol>
<symbol id="icon-chevron-thin-down" viewBox="0 0 20 20">
<path d="M17.418 6.109c0.272-0.268 0.709-0.268 0.979 0s0.271 0.701 0 0.969l-7.908 7.83c-0.27 0.268-0.707 0.268-0.979 0l-7.908-7.83c-0.27-0.268-0.27-0.701 0-0.969s0.709-0.268 0.979 0l7.419 7.141 7.418-7.141z"></path>
</symbol>
<symbol id="icon-chevron-thin-up" viewBox="0 0 20 20">
<path d="M2.582 13.891c-0.272 0.268-0.709 0.268-0.979 0s-0.271-0.701 0-0.969l7.908-7.83c0.27-0.268 0.707-0.268 0.979 0l7.908 7.83c0.27 0.268 0.27 0.701 0 0.969s-0.709 0.268-0.978 0l-7.42-7.141-7.418 7.141z"></path>
</symbol>
<symbol id="icon-loader" viewBox="0 0 24 24">
<path d="M11 2v4c0 0.552 0.448 1 1 1s1-0.448 1-1v-4c0-0.552-0.448-1-1-1s-1 0.448-1 1zM11 18v4c0 0.552 0.448 1 1 1s1-0.448 1-1v-4c0-0.552-0.448-1-1-1s-1 0.448-1 1zM4.223 5.637l2.83 2.83c0.391 0.391 1.024 0.391 1.414 0s0.391-1.024 0-1.414l-2.83-2.83c-0.391-0.391-1.024-0.391-1.414 0s-0.391 1.024 0 1.414zM15.533 16.947l2.83 2.83c0.391 0.391 1.024 0.391 1.414 0s0.391-1.024 0-1.414l-2.83-2.83c-0.391-0.391-1.024-0.391-1.414 0s-0.391 1.024 0 1.414zM2 13h4c0.552 0 1-0.448 1-1s-0.448-1-1-1h-4c-0.552 0-1 0.448-1 1s0.448 1 1 1zM18 13h4c0.552 0 1-0.448 1-1s-0.448-1-1-1h-4c-0.552 0-1 0.448-1 1s0.448 1 1 1zM5.637 19.777l2.83-2.83c0.391-0.391 0.391-1.024 0-1.414s-1.024-0.391-1.414 0l-2.83 2.83c-0.391 0.391-0.391 1.024 0 1.414s1.024 0.391 1.414 0zM16.947 8.467l2.83-2.83c0.391-0.391 0.391-1.024 0-1.414s-1.024-0.391-1.414 0l-2.83 2.83c-0.391 0.391-0.391 1.024 0 1.414s1.024 0.391 1.414 0z"></path>
</symbol>
<symbol id="icon-chevron-up" viewBox="0 0 20 20">
<path d="M15.484 12.452c-0.436 0.446-1.043 0.481-1.576 0l-3.908-3.747-3.908 3.747c-0.533 0.481-1.141 0.446-1.574 0-0.436-0.445-0.408-1.197 0-1.615 0.406-0.418 4.695-4.502 4.695-4.502 0.217-0.223 0.502-0.335 0.787-0.335s0.57 0.112 0.789 0.335c0 0 4.287 4.084 4.695 4.502s0.436 1.17 0 1.615z"></path>
</symbol>
</defs>
</svg>
